# xmcd CD database file
#
# Track frame offsets:
#	150
#	19970
#	39523
#	57355
#	79378
#	98085
#	114940
#	139245
#	158833
#	184585
#
# Disc length: 2762 seconds
#
# Revision: 0
# Processed by: cddbd v1.5PL3 Copyright (c) Steve Scherf et al.
# Submitted via: CDex 1.50beta9
#
DISCID=7e0ac80a
DTITLE=増田未亜 - ピュア
DYEAR=1900
DGENRE=Pop
TTITLE0=ふ・わ・ふ・わ
TTITLE1=九月の水彩画
TTITLE2=ピュア
TTITLE3=一日遅れのバースディ
TTITLE4=私は元気です
TTITLE5=ポニーテールをした朝は
TTITLE6=言わないで
TTITLE7=潮風に振りむいて
TTITLE8=風を見てるの
TTITLE9=瞳を閉じて
EXTD=
EXTT0=
EXTT1=
EXTT2=
EXTT3=
EXTT4=
EXTT5=
EXTT6=
EXTT7=
EXTT8=
EXTT9=
PLAYORDER=
